<svg width="500" height="120" viewBox="0 0 500 120" fill="none" xmlns="http://www.w3.org/2000/svg">
<g clip-path="url(#clip0_134_6)">
<path d="M31.2443 77.6761C31.0549 72.8229 31.5284 68.6089 32.6648 65.0341C33.8248 61.4593 35.6359 58.7012 38.098 56.7599C40.5838 54.795 43.697 53.8125 47.4375 53.8125C49.5445 53.8125 51.616 54.2268 53.652 55.0554C55.7116 55.884 58.0436 57.4583 60.6477 59.7784C61.7604 60.7491 62.7429 61.5658 63.5952 62.2287C64.4711 62.8679 65.5246 63.1875 66.7557 63.1875C68.1998 63.1875 69.4309 62.5838 70.4489 61.3764C71.4905 60.1454 71.964 58.0975 71.8693 55.233H86.0739C86.2869 60.0862 85.7898 64.3002 84.5824 67.875C83.375 71.4498 81.5284 74.2197 79.0426 76.1847C76.5568 78.1259 73.5028 79.0966 69.8807 79.0966C67.5843 79.0966 65.3826 78.6349 63.2756 77.7116C61.1922 76.7884 58.9432 75.2614 56.5284 73.1307C55.2263 71.9706 54.1965 71.1184 53.4389 70.5739C52.705 70.0057 51.7462 69.7216 50.5625 69.7216C49.071 69.7216 47.8281 70.3371 46.8338 71.5682C45.8395 72.7756 45.3778 74.8116 45.4489 77.6761H31.2443ZM128.961 19.8636L105.523 106.938H88.9041L112.342 19.8636H128.961ZM149.263 96.7102C145.38 96.7102 141.805 95.6922 138.538 93.6562C135.295 91.6203 132.691 88.5308 130.726 84.3878C128.785 80.2448 127.814 75.0246 127.814 68.7273C127.814 62.1458 128.832 56.7955 130.868 52.6761C132.928 48.5568 135.579 45.5384 138.822 43.6207C142.089 41.7031 145.522 40.7443 149.121 40.7443C151.82 40.7443 154.187 41.2178 156.223 42.1648C158.259 43.0881 159.964 44.331 161.337 45.8935C162.71 47.4323 163.751 49.125 164.462 50.9716H164.746V23.2727H184.348V96H164.888V87.0511H164.462C163.704 88.8977 162.615 90.5549 161.195 92.0227C159.798 93.4669 158.093 94.6151 156.081 95.4673C154.092 96.2959 151.82 96.7102 149.263 96.7102ZM156.507 81.6534C158.306 81.6534 159.845 81.1326 161.124 80.0909C162.426 79.0256 163.42 77.5341 164.107 75.6165C164.817 73.6752 165.172 71.3788 165.172 68.7273C165.172 66.0284 164.817 63.7202 164.107 61.8026C163.42 59.8613 162.426 58.3816 161.124 57.3636C159.845 56.322 158.306 55.8011 156.507 55.8011C154.708 55.8011 153.169 56.322 151.891 57.3636C150.636 58.3816 149.665 59.8613 148.979 61.8026C148.316 63.7202 147.984 66.0284 147.984 68.7273C147.984 71.4261 148.316 73.7462 148.979 75.6875C149.665 77.6051 150.636 79.0848 151.891 80.1264C153.169 81.1444 154.708 81.6534 156.507 81.6534ZM215.25 96.9943C209.331 96.9943 204.265 95.8224 200.051 93.4787C195.837 91.1113 192.606 87.8205 190.357 83.6065C188.107 79.3688 186.983 74.4564 186.983 68.8693C186.983 63.2822 188.107 58.3816 190.357 54.1676C192.606 49.9299 195.837 46.6392 200.051 44.2955C204.265 41.928 209.331 40.7443 215.25 40.7443C221.169 40.7443 226.235 41.928 230.449 44.2955C234.663 46.6392 237.894 49.9299 240.143 54.1676C242.393 58.3816 243.517 63.2822 243.517 68.8693C243.517 74.4564 242.393 79.3688 240.143 83.6065C237.894 87.8205 234.663 91.1113 230.449 93.4787C226.235 95.8224 221.169 96.9943 215.25 96.9943ZM215.392 82.5057C217.049 82.5057 218.482 81.9493 219.689 80.8366C220.896 79.724 221.831 78.1378 222.494 76.0781C223.157 74.0185 223.489 71.5682 223.489 68.7273C223.489 65.8627 223.157 63.4124 222.494 61.3764C221.831 59.3168 220.896 57.7306 219.689 56.6179C218.482 55.5052 217.049 54.9489 215.392 54.9489C213.64 54.9489 212.137 55.5052 210.882 56.6179C209.627 57.7306 208.669 59.3168 208.006 61.3764C207.343 63.4124 207.011 65.8627 207.011 68.7273C207.011 71.5682 207.343 74.0185 208.006 76.0781C208.669 78.1378 209.627 79.724 210.882 80.8366C212.137 81.9493 213.64 82.5057 215.392 82.5057ZM279 41.4545V55.6591H243.062V41.4545H279ZM250.023 28.3864H269.625V78.4574C269.625 79.215 269.755 79.8542 270.016 80.375C270.276 80.8722 270.679 81.2509 271.223 81.5114C271.768 81.7481 272.466 81.8665 273.318 81.8665C273.91 81.8665 274.597 81.7955 275.378 81.6534C276.183 81.5114 276.775 81.393 277.153 81.2983L279.994 95.0767C279.118 95.3371 277.864 95.6567 276.23 96.0355C274.62 96.4143 272.703 96.6629 270.477 96.7812C265.979 97.018 262.203 96.5563 259.149 95.3963C256.095 94.2126 253.799 92.3542 252.26 89.821C250.721 87.2879 249.975 84.1155 250.023 80.304V28.3864Z" fill="black"/>
<path d="M314.669 41.4545V55.6591H278.164V41.4545H314.669ZM285.124 96V39.892C285.124 35.3939 285.929 31.6652 287.539 28.706C289.149 25.7467 291.421 23.5331 294.357 22.0653C297.292 20.5975 300.749 19.8636 304.726 19.8636C307.212 19.8636 309.627 20.053 311.971 20.4318C314.338 20.8106 316.09 21.142 317.226 21.4261L314.385 35.4886C313.675 35.2756 312.846 35.1098 311.9 34.9915C310.953 34.8494 310.124 34.7784 309.414 34.7784C307.567 34.7784 306.324 35.169 305.685 35.9503C305.046 36.7315 304.726 37.7614 304.726 39.0398V96H285.124ZM317.233 96V41.4545H336.836V96H317.233ZM327.034 35.7727C324.383 35.7727 322.11 34.8968 320.216 33.1449C318.322 31.393 317.375 29.286 317.375 26.8239C317.375 24.3617 318.322 22.2547 320.216 20.5028C322.11 18.7509 324.383 17.875 327.034 17.875C329.71 17.875 331.982 18.7509 333.853 20.5028C335.747 22.2547 336.694 24.3617 336.694 26.8239C336.694 29.286 335.747 31.393 333.853 33.1449C331.982 34.8968 329.71 35.7727 327.034 35.7727ZM361.425 23.2727V96H341.823V23.2727H361.425ZM392.549 96.9943C386.725 96.9943 381.707 95.8816 377.493 93.6562C373.302 91.4072 370.071 88.1875 367.798 83.9972C365.549 79.7831 364.424 74.7405 364.424 68.8693C364.424 63.2348 365.561 58.3106 367.833 54.0966C370.106 49.8826 373.314 46.6037 377.457 44.2599C381.6 41.9162 386.489 40.7443 392.123 40.7443C396.243 40.7443 399.971 41.3835 403.309 42.6619C406.647 43.9403 409.5 45.7988 411.868 48.2372C414.235 50.652 416.058 53.5876 417.336 57.044C418.615 60.5005 419.254 64.3949 419.254 68.7273V73.2727H370.532V62.4773H401.214C401.19 60.9148 400.788 59.5417 400.007 58.358C399.249 57.1506 398.219 56.2154 396.917 55.5526C395.639 54.866 394.183 54.5227 392.549 54.5227C390.963 54.5227 389.507 54.866 388.181 55.5526C386.856 56.2154 385.79 57.1387 384.985 58.3224C384.204 59.5062 383.79 60.8911 383.743 62.4773V74.125C383.743 75.8769 384.109 77.4394 384.843 78.8125C385.577 80.1856 386.631 81.2628 388.004 82.044C389.377 82.8253 391.034 83.2159 392.975 83.2159C394.325 83.2159 395.556 83.0265 396.669 82.6477C397.805 82.2689 398.776 81.7244 399.581 81.0142C400.386 80.2803 400.977 79.4044 401.356 78.3864H419.254C418.638 82.1742 417.182 85.465 414.886 88.2585C412.59 91.0284 409.547 93.1828 405.76 94.7216C401.995 96.2367 397.592 96.9943 392.549 96.9943ZM472.111 59.2102H454.071C453.976 58.0975 453.586 57.1387 452.899 56.3338C452.213 55.5289 451.325 54.9134 450.236 54.4872C449.17 54.0374 447.987 53.8125 446.685 53.8125C445.004 53.8125 443.56 54.1203 442.352 54.7358C441.145 55.3513 440.553 56.2273 440.577 57.3636C440.553 58.1686 440.896 58.9143 441.607 59.6009C442.34 60.2874 443.749 60.8201 445.832 61.1989L456.912 63.1875C462.499 64.2055 466.654 65.9219 469.376 68.3366C472.123 70.7277 473.508 73.9356 473.531 77.9602C473.508 81.8428 472.348 85.2164 470.051 88.081C467.778 90.9219 464.665 93.1236 460.712 94.6861C456.782 96.2249 452.295 96.9943 447.253 96.9943C438.92 96.9943 432.397 95.2898 427.686 91.8807C422.999 88.4716 420.383 83.9735 419.838 78.3864H439.298C439.559 80.1146 440.411 81.4522 441.855 82.3991C443.323 83.3224 445.17 83.7841 447.395 83.7841C449.194 83.7841 450.674 83.4763 451.834 82.8608C453.018 82.2453 453.621 81.3693 453.645 80.233C453.621 79.1913 453.1 78.3627 452.082 77.7472C451.088 77.1316 449.526 76.6345 447.395 76.2557L437.736 74.5511C432.172 73.5805 428.006 71.7339 425.236 69.0114C422.466 66.2888 421.093 62.785 421.116 58.5C421.093 54.7121 422.087 51.5043 424.099 48.8764C426.135 46.2249 429.036 44.2126 432.8 42.8395C436.588 41.4427 441.074 40.7443 446.259 40.7443C454.142 40.7443 460.357 42.3778 464.902 45.6449C469.471 48.9119 471.874 53.4337 472.111 59.2102Z" fill="#E52C2C"/>
</g>
<defs>
<clipPath id="clip0_134_6">
<rect width="500" height="120" fill="white"/>
</clipPath>
</defs>
</svg>
